<svg width="44" height="44" viewBox="0 0 44 44" fill="none" xmlns="http://www.w3.org/2000/svg">
<g id="Group">
<path id="Vector" d="M32.6483 2.8335H11.352C6.64736 2.8335 2.8335 6.64736 2.8335 11.352V32.6483C2.8335 37.353 6.64736 41.1668 11.352 41.1668H32.6483C37.353 41.1668 41.1668 37.353 41.1668 32.6483V11.352C41.1668 6.64736 37.353 2.8335 32.6483 2.8335Z" fill="#2F88FF" stroke="black" stroke-width="4" stroke-linejoin="round"/>
<path id="Vector_2" d="M22 30.5185C26.7046 30.5185 30.5185 26.7046 30.5185 22C30.5185 17.2953 26.7046 13.4814 22 13.4814C17.2953 13.4814 13.4814 17.2953 13.4814 22C13.4814 26.7046 17.2953 30.5185 22 30.5185Z" fill="#43CCF8" stroke="white" stroke-width="4" stroke-linejoin="round"/>
<path id="Vector_3" d="M33.7131 12.417C34.8893 12.417 35.8428 11.4635 35.8428 10.2873C35.8428 9.11115 34.8893 8.15771 33.7131 8.15771C32.5369 8.15771 31.5835 9.11115 31.5835 10.2873C31.5835 11.4635 32.5369 12.417 33.7131 12.417Z" fill="white"/>
</g>
</svg>
