<svg width="50" height="50" viewBox="0 0 50 50" fill="none" xmlns="http://www.w3.org/2000/svg">
<g id="vaadin:youtube">
<path id="Vector" d="M20.625 0H17.8125L15.9375 7.1875L14.0625 0H10.9375C11.5625 1.875 12.1875 3.4375 12.8125 5.3125C13.75 7.8125 14.375 10 14.375 11.25V18.75H17.1875V11.25L20.625 0ZM28.125 14.0625V9.375C28.125 7.8125 27.8125 6.875 27.1875 5.9375C26.5625 5 25.625 4.6875 24.375 4.6875C23.125 4.6875 22.1875 5.3125 21.5625 6.25C20.9375 6.875 20.625 7.8125 20.625 9.375V14.375C20.625 15.9375 20.9375 16.875 21.5625 17.5C22.1875 18.4375 23.125 18.75 24.375 18.75C25.625 18.75 26.5625 18.125 27.1875 17.1875C27.8125 16.875 28.125 15.625 28.125 14.0625ZM25.625 14.6875C25.625 15.9375 25.3125 16.5625 24.375 16.5625C23.4375 16.5625 23.125 15.9375 23.125 14.6875V8.75C23.125 7.5 23.4375 6.875 24.375 6.875C25.3125 6.875 25.625 7.5 25.625 8.75V14.6875ZM37.5 18.75V4.6875H35V15.3125C34.375 16.25 34.0625 16.5625 33.4375 16.5625C33.125 16.5625 32.8125 16.25 32.8125 15.9375V4.6875H30.3125V15.625C30.3125 16.5625 30.3125 17.1875 30.625 17.8125C30.625 18.4375 31.25 18.75 32.1875 18.75C33.125 18.75 34.0625 18.125 35 17.1875V18.75H37.5ZM38.75 32.8125C37.8125 32.8125 37.5 33.4375 37.5 34.6875V35.9375H40V34.6875C40 33.4375 39.6875 32.8125 38.75 32.8125ZM29.6875 32.8125C29.375 32.8125 28.75 33.125 28.4375 33.4375V41.875C28.75 42.1875 29.375 42.5 29.6875 42.5C30.3125 42.5 30.625 41.875 30.625 40.625V34.6875C30.625 33.4375 30.3125 32.8125 29.6875 32.8125Z" fill="black"/>
<path id="Vector_2" d="M45 25.9375C44.375 23.75 42.5 21.875 40.625 21.875C35.625 21.25 30.3125 21.25 25 21.25C19.6875 21.25 14.6875 21.25 9.375 21.875C7.5 21.875 5.625 23.75 5 25.9375C4.375 29.0625 4.375 32.5 4.375 35.625C4.375 38.75 4.375 42.1875 5 45.3125C5.625 47.5 7.1875 49.0625 9.375 49.375C14.6875 50 19.6875 50 25 50C30.3125 50 35.3125 50 40.625 49.375C42.8125 49.0625 44.6875 47.5 45 45.3125C45.625 42.1875 45.625 38.75 45.625 35.625C45.625 32.5 45.625 29.0625 45 25.9375ZM16.25 28.75H13.125V44.6875H10.3125V28.75H7.5V25.9375H16.25V28.75ZM23.75 44.6875H21.25V43.125C20.3125 44.375 19.375 44.6875 18.4375 44.6875C17.5 44.6875 17.1875 44.375 16.875 43.75C16.875 43.4375 16.5625 42.8125 16.5625 41.5625V30.625H19.0625V41.5625C19.0625 41.875 19.375 42.1875 19.6875 42.1875C20.3125 42.1875 20.625 41.875 21.25 40.9375V30.625H23.75V44.6875ZM33.125 40.3125C33.125 41.5625 33.125 42.5 32.8125 43.125C32.5 44.0625 31.875 44.6875 30.9375 44.6875C30 44.6875 29.0625 44.0625 28.4375 43.125V44.375H25.9375V25.9375H28.4375V31.875C29.375 30.9375 30 30.3125 30.9375 30.3125C31.875 30.3125 32.5 30.9375 32.8125 31.875C33.125 32.5 33.125 33.4375 33.125 34.6875V40.3125ZM42.5 38.125H37.5V40.625C37.5 41.875 37.8125 42.5 38.75 42.5C39.375 42.5 39.6875 42.1875 40 41.5625V40H42.5V41.875C42.5 42.5 42.1875 42.8125 41.875 43.4375C41.25 44.375 40.3125 45 38.75 45C37.5 45 36.5625 44.375 35.625 43.4375C35 42.8125 34.6875 41.5625 34.6875 40.3125V35.625C34.6875 34.0625 35 33.125 35.3125 32.5C35.9375 31.5625 36.875 30.9375 38.4375 30.9375C39.6875 30.9375 40.625 31.5625 41.25 32.5C41.875 33.125 41.875 34.375 41.875 35.625V38.125H42.5Z" fill="black"/>
</g>
</svg>
