<svg width="44" height="44" viewBox="0 0 44 44" fill="none" xmlns="http://www.w3.org/2000/svg">
<g id="Group">
<path id="Vector" d="M30.0157 42.6667H40.1448C40.8578 42.6667 41.5416 42.3834 42.0458 41.8793C42.5499 41.3751 42.8332 40.6913 42.8332 39.9783V3.68833C42.8332 2.97534 42.5499 2.29156 42.0458 1.78739C41.5416 1.28323 40.8578 1 40.1448 1H3.85484C3.14185 1 2.45806 1.28323 1.9539 1.78739C1.44974 2.29156 1.1665 2.97534 1.1665 3.68833V39.9783C1.1665 40.6913 1.44974 41.3751 1.9539 41.8793C2.45806 42.3834 3.14185 42.6667 3.85484 42.6667H23.4182" stroke="black" stroke-width="2" stroke-miterlimit="10"/>
<path id="Vector_2" d="M30.0146 42.6668V26.1735H35.9521L36.6121 19.576H30.0146V15.6177C30.0146 12.9785 31.9938 12.9785 32.6538 12.9785H36.6121V7.04182C33.9455 6.77182 23.4171 4.40349 23.4171 15.6185V19.5768H18.1396V26.1743H23.4171V42.6668" stroke="black" stroke-width="2" stroke-linecap="round" stroke-linejoin="round"/>
</g>
</svg>
